<mxfile host="app.diagrams.net" agent="Mozilla/5.0 (Macintosh; Intel Mac OS X 10_15_7) AppleWebKit/537.36 (KHTML, like Gecko) Chrome/136.0.0.0 Safari/537.36" version="27.0.9">
  <diagram name="Page-1" id="3MmFh2monLKtXmuFVn6e">
    <mxGraphModel dx="2916" dy="2164" grid="1" gridSize="10" guides="1" tooltips="1" connect="1" arrows="1" fold="1" page="1" pageScale="1" pageWidth="850" pageHeight="1100" math="0" shadow="0">
      <root>
        <mxCell id="0" />
        <mxCell id="1" parent="0" />
        <mxCell id="AwKzLyUp2XAvsV8vCrsQ-3" value="us-esat-1" style="points=[[0,0],[0.25,0],[0.5,0],[0.75,0],[1,0],[1,0.25],[1,0.5],[1,0.75],[1,1],[0.75,1],[0.5,1],[0.25,1],[0,1],[0,0.75],[0,0.5],[0,0.25]];outlineConnect=0;gradientColor=none;html=1;whiteSpace=wrap;fontSize=12;fontStyle=0;container=1;pointerEvents=0;collapsible=0;recursiveResize=0;shape=mxgraph.aws4.group;grIcon=mxgraph.aws4.group_region;strokeColor=#00A4A6;fillColor=none;verticalAlign=top;align=left;spacingLeft=30;fontColor=#147EBA;dashed=1;" parent="1" vertex="1">
          <mxGeometry x="380" y="200" width="1240" height="800" as="geometry" />
        </mxCell>
        <mxCell id="AwKzLyUp2XAvsV8vCrsQ-6" value="VPC" style="points=[[0,0],[0.25,0],[0.5,0],[0.75,0],[1,0],[1,0.25],[1,0.5],[1,0.75],[1,1],[0.75,1],[0.5,1],[0.25,1],[0,1],[0,0.75],[0,0.5],[0,0.25]];outlineConnect=0;gradientColor=none;html=1;whiteSpace=wrap;fontSize=12;fontStyle=0;container=1;pointerEvents=0;collapsible=0;recursiveResize=0;shape=mxgraph.aws4.group;grIcon=mxgraph.aws4.group_vpc2;strokeColor=#8C4FFF;fillColor=none;verticalAlign=top;align=left;spacingLeft=30;fontColor=#AAB7B8;dashed=0;" parent="AwKzLyUp2XAvsV8vCrsQ-3" vertex="1">
          <mxGeometry x="40" y="40" width="1090" height="690" as="geometry" />
        </mxCell>
        <mxCell id="P-KZXeGg92Hp4Yk-E8ys-35" style="rounded=0;orthogonalLoop=1;jettySize=auto;html=1;exitX=0.25;exitY=1;exitDx=0;exitDy=0;exitPerimeter=0;edgeStyle=orthogonalEdgeStyle;elbow=vertical;curved=1;" parent="AwKzLyUp2XAvsV8vCrsQ-6" source="P-KZXeGg92Hp4Yk-E8ys-12" target="P-KZXeGg92Hp4Yk-E8ys-17" edge="1">
          <mxGeometry relative="1" as="geometry" />
        </mxCell>
        <mxCell id="P-KZXeGg92Hp4Yk-E8ys-37" style="rounded=0;orthogonalLoop=1;jettySize=auto;html=1;exitX=0.5;exitY=1;exitDx=0;exitDy=0;exitPerimeter=0;edgeStyle=orthogonalEdgeStyle;elbow=vertical;curved=1;" parent="AwKzLyUp2XAvsV8vCrsQ-6" source="P-KZXeGg92Hp4Yk-E8ys-12" target="P-KZXeGg92Hp4Yk-E8ys-16" edge="1">
          <mxGeometry relative="1" as="geometry" />
        </mxCell>
        <mxCell id="P-KZXeGg92Hp4Yk-E8ys-38" style="rounded=0;orthogonalLoop=1;jettySize=auto;html=1;exitX=0.5;exitY=1;exitDx=0;exitDy=0;exitPerimeter=0;edgeStyle=orthogonalEdgeStyle;elbow=vertical;curved=1;" parent="AwKzLyUp2XAvsV8vCrsQ-6" source="P-KZXeGg92Hp4Yk-E8ys-12" target="P-KZXeGg92Hp4Yk-E8ys-15" edge="1">
          <mxGeometry relative="1" as="geometry" />
        </mxCell>
        <mxCell id="P-KZXeGg92Hp4Yk-E8ys-12" value="EKS" style="sketch=0;points=[[0,0,0],[0.25,0,0],[0.5,0,0],[0.75,0,0],[1,0,0],[0,1,0],[0.25,1,0],[0.5,1,0],[0.75,1,0],[1,1,0],[0,0.25,0],[0,0.5,0],[0,0.75,0],[1,0.25,0],[1,0.5,0],[1,0.75,0]];outlineConnect=0;fontColor=#232F3E;fillColor=#ED7100;strokeColor=#ffffff;dashed=0;verticalLabelPosition=bottom;verticalAlign=top;align=center;html=1;fontSize=12;fontStyle=0;aspect=fixed;shape=mxgraph.aws4.resourceIcon;resIcon=mxgraph.aws4.eks;" parent="AwKzLyUp2XAvsV8vCrsQ-6" vertex="1">
          <mxGeometry x="470" y="218" width="60" height="60" as="geometry" />
        </mxCell>
        <mxCell id="P-KZXeGg92Hp4Yk-E8ys-15" value="Mysql" style="sketch=0;outlineConnect=0;fontColor=#232F3E;gradientColor=none;fillColor=#C925D1;strokeColor=none;dashed=0;verticalLabelPosition=bottom;verticalAlign=top;align=center;html=1;fontSize=12;fontStyle=0;aspect=fixed;pointerEvents=1;shape=mxgraph.aws4.rds_instance;" parent="AwKzLyUp2XAvsV8vCrsQ-6" vertex="1">
          <mxGeometry x="560" y="440" width="50" height="50" as="geometry" />
        </mxCell>
        <mxCell id="P-KZXeGg92Hp4Yk-E8ys-16" value="Redis" style="sketch=0;outlineConnect=0;fontColor=#232F3E;gradientColor=none;fillColor=#C925D1;strokeColor=none;dashed=0;verticalLabelPosition=bottom;verticalAlign=top;align=center;html=1;fontSize=12;fontStyle=0;aspect=fixed;pointerEvents=1;shape=mxgraph.aws4.elasticache_for_redis;" parent="AwKzLyUp2XAvsV8vCrsQ-6" vertex="1">
          <mxGeometry x="443.48" y="450" width="56.52" height="50" as="geometry" />
        </mxCell>
        <mxCell id="P-KZXeGg92Hp4Yk-E8ys-17" value="AMQ" style="sketch=0;points=[[0,0,0],[0.25,0,0],[0.5,0,0],[0.75,0,0],[1,0,0],[0,1,0],[0.25,1,0],[0.5,1,0],[0.75,1,0],[1,1,0],[0,0.25,0],[0,0.5,0],[0,0.75,0],[1,0.25,0],[1,0.5,0],[1,0.75,0]];outlineConnect=0;fontColor=#232F3E;fillColor=#E7157B;strokeColor=#ffffff;dashed=0;verticalLabelPosition=bottom;verticalAlign=top;align=center;html=1;fontSize=12;fontStyle=0;aspect=fixed;shape=mxgraph.aws4.resourceIcon;resIcon=mxgraph.aws4.mq;" parent="AwKzLyUp2XAvsV8vCrsQ-6" vertex="1">
          <mxGeometry x="210" y="450" width="60" height="60" as="geometry" />
        </mxCell>
        <mxCell id="P-KZXeGg92Hp4Yk-E8ys-18" value="S3" style="sketch=0;points=[[0,0,0],[0.25,0,0],[0.5,0,0],[0.75,0,0],[1,0,0],[0,1,0],[0.25,1,0],[0.5,1,0],[0.75,1,0],[1,1,0],[0,0.25,0],[0,0.5,0],[0,0.75,0],[1,0.25,0],[1,0.5,0],[1,0.75,0]];outlineConnect=0;fontColor=#232F3E;fillColor=#7AA116;strokeColor=#ffffff;dashed=0;verticalLabelPosition=bottom;verticalAlign=top;align=center;html=1;fontSize=12;fontStyle=0;aspect=fixed;shape=mxgraph.aws4.resourceIcon;resIcon=mxgraph.aws4.s3;" parent="AwKzLyUp2XAvsV8vCrsQ-6" vertex="1">
          <mxGeometry x="100" y="440" width="60" height="60" as="geometry" />
        </mxCell>
        <mxCell id="P-KZXeGg92Hp4Yk-E8ys-19" value="Cloudfront" style="sketch=0;points=[[0,0,0],[0.25,0,0],[0.5,0,0],[0.75,0,0],[1,0,0],[0,1,0],[0.25,1,0],[0.5,1,0],[0.75,1,0],[1,1,0],[0,0.25,0],[0,0.5,0],[0,0.75,0],[1,0.25,0],[1,0.5,0],[1,0.75,0]];outlineConnect=0;fontColor=#232F3E;fillColor=#8C4FFF;strokeColor=#ffffff;dashed=0;verticalLabelPosition=bottom;verticalAlign=top;align=center;html=1;fontSize=12;fontStyle=0;aspect=fixed;shape=mxgraph.aws4.resourceIcon;resIcon=mxgraph.aws4.cloudfront;" parent="AwKzLyUp2XAvsV8vCrsQ-6" vertex="1">
          <mxGeometry x="210" y="20" width="60" height="60" as="geometry" />
        </mxCell>
        <mxCell id="P-KZXeGg92Hp4Yk-E8ys-20" value="IoT" style="sketch=0;points=[[0,0,0],[0.25,0,0],[0.5,0,0],[0.75,0,0],[1,0,0],[0,1,0],[0.25,1,0],[0.5,1,0],[0.75,1,0],[1,1,0],[0,0.25,0],[0,0.5,0],[0,0.75,0],[1,0.25,0],[1,0.5,0],[1,0.75,0]];outlineConnect=0;fontColor=#232F3E;fillColor=#7AA116;strokeColor=#ffffff;dashed=0;verticalLabelPosition=bottom;verticalAlign=top;align=center;html=1;fontSize=12;fontStyle=0;aspect=fixed;shape=mxgraph.aws4.resourceIcon;resIcon=mxgraph.aws4.internet_of_things;" parent="AwKzLyUp2XAvsV8vCrsQ-6" vertex="1">
          <mxGeometry x="720" y="200" width="60" height="60" as="geometry" />
        </mxCell>
        <mxCell id="P-KZXeGg92Hp4Yk-E8ys-41" style="edgeStyle=orthogonalEdgeStyle;rounded=0;orthogonalLoop=1;jettySize=auto;html=1;exitX=0;exitY=0.5;exitDx=0;exitDy=0;exitPerimeter=0;" parent="AwKzLyUp2XAvsV8vCrsQ-6" source="P-KZXeGg92Hp4Yk-E8ys-22" target="P-KZXeGg92Hp4Yk-E8ys-15" edge="1">
          <mxGeometry relative="1" as="geometry">
            <Array as="points">
              <mxPoint x="970" y="550" />
              <mxPoint x="585" y="550" />
            </Array>
          </mxGeometry>
        </mxCell>
        <mxCell id="P-KZXeGg92Hp4Yk-E8ys-22" value="Lambda" style="outlineConnect=0;dashed=0;verticalLabelPosition=bottom;verticalAlign=top;align=center;html=1;shape=mxgraph.aws3.lambda_function;fillColor=#F58534;gradientColor=none;" parent="AwKzLyUp2XAvsV8vCrsQ-6" vertex="1">
          <mxGeometry x="970" y="278" width="60" height="62" as="geometry" />
        </mxCell>
        <mxCell id="P-KZXeGg92Hp4Yk-E8ys-23" value="ECR" style="sketch=0;points=[[0,0,0],[0.25,0,0],[0.5,0,0],[0.75,0,0],[1,0,0],[0,1,0],[0.25,1,0],[0.5,1,0],[0.75,1,0],[1,1,0],[0,0.25,0],[0,0.5,0],[0,0.75,0],[1,0.25,0],[1,0.5,0],[1,0.75,0]];outlineConnect=0;fontColor=#232F3E;fillColor=#ED7100;strokeColor=#ffffff;dashed=0;verticalLabelPosition=bottom;verticalAlign=top;align=center;html=1;fontSize=12;fontStyle=0;aspect=fixed;shape=mxgraph.aws4.resourceIcon;resIcon=mxgraph.aws4.ecr;" parent="AwKzLyUp2XAvsV8vCrsQ-6" vertex="1">
          <mxGeometry x="670" y="420" width="60" height="60" as="geometry" />
        </mxCell>
        <mxCell id="P-KZXeGg92Hp4Yk-E8ys-24" value="SES" style="sketch=0;points=[[0,0,0],[0.25,0,0],[0.5,0,0],[0.75,0,0],[1,0,0],[0,1,0],[0.25,1,0],[0.5,1,0],[0.75,1,0],[1,1,0],[0,0.25,0],[0,0.5,0],[0,0.75,0],[1,0.25,0],[1,0.5,0],[1,0.75,0]];outlineConnect=0;fontColor=#232F3E;fillColor=#DD344C;strokeColor=#ffffff;dashed=0;verticalLabelPosition=bottom;verticalAlign=top;align=center;html=1;fontSize=12;fontStyle=0;aspect=fixed;shape=mxgraph.aws4.resourceIcon;resIcon=mxgraph.aws4.simple_email_service;" parent="AwKzLyUp2XAvsV8vCrsQ-6" vertex="1">
          <mxGeometry x="320" y="450" width="60" height="60" as="geometry" />
        </mxCell>
        <mxCell id="P-KZXeGg92Hp4Yk-E8ys-25" value="EFS" style="sketch=0;points=[[0,0,0],[0.25,0,0],[0.5,0,0],[0.75,0,0],[1,0,0],[0,1,0],[0.25,1,0],[0.5,1,0],[0.75,1,0],[1,1,0],[0,0.25,0],[0,0.5,0],[0,0.75,0],[1,0.25,0],[1,0.5,0],[1,0.75,0]];outlineConnect=0;fontColor=#232F3E;fillColor=#7AA116;strokeColor=#ffffff;dashed=0;verticalLabelPosition=bottom;verticalAlign=top;align=center;html=1;fontSize=12;fontStyle=0;aspect=fixed;shape=mxgraph.aws4.resourceIcon;resIcon=mxgraph.aws4.elastic_file_system;" parent="AwKzLyUp2XAvsV8vCrsQ-6" vertex="1">
          <mxGeometry x="190" y="330" width="60" height="60" as="geometry" />
        </mxCell>
        <mxCell id="P-KZXeGg92Hp4Yk-E8ys-33" style="rounded=0;orthogonalLoop=1;jettySize=auto;html=1;exitX=0.5;exitY=1;exitDx=0;exitDy=0;exitPerimeter=0;edgeStyle=orthogonalEdgeStyle;elbow=vertical;curved=1;" parent="AwKzLyUp2XAvsV8vCrsQ-6" source="P-KZXeGg92Hp4Yk-E8ys-29" target="P-KZXeGg92Hp4Yk-E8ys-25" edge="1">
          <mxGeometry relative="1" as="geometry" />
        </mxCell>
        <mxCell id="P-KZXeGg92Hp4Yk-E8ys-29" value="EC2" style="sketch=0;points=[[0,0,0],[0.25,0,0],[0.5,0,0],[0.75,0,0],[1,0,0],[0,1,0],[0.25,1,0],[0.5,1,0],[0.75,1,0],[1,1,0],[0,0.25,0],[0,0.5,0],[0,0.75,0],[1,0.25,0],[1,0.5,0],[1,0.75,0]];outlineConnect=0;fontColor=#232F3E;fillColor=#ED7100;strokeColor=#ffffff;dashed=0;verticalLabelPosition=bottom;verticalAlign=top;align=center;html=1;fontSize=12;fontStyle=0;aspect=fixed;shape=mxgraph.aws4.resourceIcon;resIcon=mxgraph.aws4.ec2;" parent="AwKzLyUp2XAvsV8vCrsQ-6" vertex="1">
          <mxGeometry x="290" y="156" width="62" height="62" as="geometry" />
        </mxCell>
        <mxCell id="P-KZXeGg92Hp4Yk-E8ys-45" style="edgeStyle=orthogonalEdgeStyle;rounded=0;orthogonalLoop=1;jettySize=auto;html=1;exitX=0.5;exitY=1;exitDx=0;exitDy=0;exitPerimeter=0;" parent="AwKzLyUp2XAvsV8vCrsQ-6" source="P-KZXeGg92Hp4Yk-E8ys-31" target="P-KZXeGg92Hp4Yk-E8ys-29" edge="1">
          <mxGeometry relative="1" as="geometry" />
        </mxCell>
        <mxCell id="P-KZXeGg92Hp4Yk-E8ys-47" style="edgeStyle=orthogonalEdgeStyle;rounded=0;orthogonalLoop=1;jettySize=auto;html=1;exitX=0.5;exitY=1;exitDx=0;exitDy=0;exitPerimeter=0;" parent="AwKzLyUp2XAvsV8vCrsQ-6" source="P-KZXeGg92Hp4Yk-E8ys-31" edge="1">
          <mxGeometry relative="1" as="geometry">
            <mxPoint x="500" y="220" as="targetPoint" />
          </mxGeometry>
        </mxCell>
        <mxCell id="P-KZXeGg92Hp4Yk-E8ys-31" value="ELB" style="sketch=0;points=[[0,0,0],[0.25,0,0],[0.5,0,0],[0.75,0,0],[1,0,0],[0,1,0],[0.25,1,0],[0.5,1,0],[0.75,1,0],[1,1,0],[0,0.25,0],[0,0.5,0],[0,0.75,0],[1,0.25,0],[1,0.5,0],[1,0.75,0]];outlineConnect=0;fontColor=#232F3E;fillColor=#8C4FFF;strokeColor=#ffffff;dashed=0;verticalLabelPosition=bottom;verticalAlign=top;align=center;html=1;fontSize=12;fontStyle=0;aspect=fixed;shape=mxgraph.aws4.resourceIcon;resIcon=mxgraph.aws4.elastic_load_balancing;" parent="AwKzLyUp2XAvsV8vCrsQ-6" vertex="1">
          <mxGeometry x="430" y="20" width="60" height="60" as="geometry" />
        </mxCell>
        <mxCell id="P-KZXeGg92Hp4Yk-E8ys-32" style="rounded=0;orthogonalLoop=1;jettySize=auto;html=1;exitX=0.5;exitY=1;exitDx=0;exitDy=0;exitPerimeter=0;entryX=0.5;entryY=0;entryDx=0;entryDy=0;entryPerimeter=0;edgeStyle=orthogonalEdgeStyle;elbow=vertical;curved=1;" parent="AwKzLyUp2XAvsV8vCrsQ-6" source="P-KZXeGg92Hp4Yk-E8ys-19" target="P-KZXeGg92Hp4Yk-E8ys-18" edge="1">
          <mxGeometry relative="1" as="geometry" />
        </mxCell>
        <mxCell id="P-KZXeGg92Hp4Yk-E8ys-34" style="rounded=0;orthogonalLoop=1;jettySize=auto;html=1;exitX=0;exitY=0.5;exitDx=0;exitDy=0;exitPerimeter=0;entryX=1;entryY=0.5;entryDx=0;entryDy=0;entryPerimeter=0;edgeStyle=orthogonalEdgeStyle;elbow=vertical;curved=1;" parent="AwKzLyUp2XAvsV8vCrsQ-6" source="P-KZXeGg92Hp4Yk-E8ys-12" target="P-KZXeGg92Hp4Yk-E8ys-25" edge="1">
          <mxGeometry relative="1" as="geometry" />
        </mxCell>
        <mxCell id="P-KZXeGg92Hp4Yk-E8ys-36" style="rounded=0;orthogonalLoop=1;jettySize=auto;html=1;exitX=0.5;exitY=1;exitDx=0;exitDy=0;exitPerimeter=0;entryX=0.5;entryY=0;entryDx=0;entryDy=0;entryPerimeter=0;edgeStyle=orthogonalEdgeStyle;elbow=vertical;curved=1;" parent="AwKzLyUp2XAvsV8vCrsQ-6" source="P-KZXeGg92Hp4Yk-E8ys-12" target="P-KZXeGg92Hp4Yk-E8ys-24" edge="1">
          <mxGeometry relative="1" as="geometry" />
        </mxCell>
        <mxCell id="P-KZXeGg92Hp4Yk-E8ys-39" style="edgeStyle=orthogonalEdgeStyle;rounded=0;orthogonalLoop=1;jettySize=auto;html=1;exitX=0.5;exitY=1;exitDx=0;exitDy=0;exitPerimeter=0;entryX=0.5;entryY=0;entryDx=0;entryDy=0;entryPerimeter=0;curved=1;" parent="AwKzLyUp2XAvsV8vCrsQ-6" source="P-KZXeGg92Hp4Yk-E8ys-12" target="P-KZXeGg92Hp4Yk-E8ys-23" edge="1">
          <mxGeometry relative="1" as="geometry" />
        </mxCell>
        <mxCell id="P-KZXeGg92Hp4Yk-E8ys-40" style="rounded=0;orthogonalLoop=1;jettySize=auto;html=1;exitX=1;exitY=0.5;exitDx=0;exitDy=0;exitPerimeter=0;entryX=0;entryY=0.5;entryDx=0;entryDy=0;entryPerimeter=0;edgeStyle=orthogonalEdgeStyle;elbow=vertical;curved=1;" parent="AwKzLyUp2XAvsV8vCrsQ-6" source="P-KZXeGg92Hp4Yk-E8ys-12" target="P-KZXeGg92Hp4Yk-E8ys-20" edge="1">
          <mxGeometry relative="1" as="geometry" />
        </mxCell>
        <mxCell id="P-KZXeGg92Hp4Yk-E8ys-43" style="edgeStyle=orthogonalEdgeStyle;rounded=0;orthogonalLoop=1;jettySize=auto;html=1;exitX=0.25;exitY=1;exitDx=0;exitDy=0;exitPerimeter=0;" parent="AwKzLyUp2XAvsV8vCrsQ-6" source="P-KZXeGg92Hp4Yk-E8ys-42" target="P-KZXeGg92Hp4Yk-E8ys-15" edge="1">
          <mxGeometry relative="1" as="geometry">
            <Array as="points">
              <mxPoint x="835" y="550" />
              <mxPoint x="585" y="550" />
            </Array>
          </mxGeometry>
        </mxCell>
        <mxCell id="P-KZXeGg92Hp4Yk-E8ys-42" value="" style="sketch=0;points=[[0,0,0],[0.25,0,0],[0.5,0,0],[0.75,0,0],[1,0,0],[0,1,0],[0.25,1,0],[0.5,1,0],[0.75,1,0],[1,1,0],[0,0.25,0],[0,0.5,0],[0,0.75,0],[1,0.25,0],[1,0.5,0],[1,0.75,0]];outlineConnect=0;fontColor=#232F3E;fillColor=#C925D1;strokeColor=#ffffff;dashed=0;verticalLabelPosition=bottom;verticalAlign=top;align=center;html=1;fontSize=12;fontStyle=0;aspect=fixed;shape=mxgraph.aws4.resourceIcon;resIcon=mxgraph.aws4.database_migration_service;" parent="AwKzLyUp2XAvsV8vCrsQ-6" vertex="1">
          <mxGeometry x="820" y="321" width="59" height="59" as="geometry" />
        </mxCell>
        <mxCell id="P-KZXeGg92Hp4Yk-E8ys-44" style="edgeStyle=orthogonalEdgeStyle;rounded=0;orthogonalLoop=1;jettySize=auto;html=1;exitX=0.25;exitY=1;exitDx=0;exitDy=0;exitPerimeter=0;entryX=0.5;entryY=1;entryDx=0;entryDy=0;entryPerimeter=0;" parent="AwKzLyUp2XAvsV8vCrsQ-6" source="P-KZXeGg92Hp4Yk-E8ys-42" target="P-KZXeGg92Hp4Yk-E8ys-18" edge="1">
          <mxGeometry relative="1" as="geometry">
            <Array as="points">
              <mxPoint x="835" y="550" />
              <mxPoint x="130" y="550" />
            </Array>
          </mxGeometry>
        </mxCell>
        <mxCell id="P-KZXeGg92Hp4Yk-E8ys-46" style="edgeStyle=orthogonalEdgeStyle;rounded=0;orthogonalLoop=1;jettySize=auto;html=1;exitX=1;exitY=0.5;exitDx=0;exitDy=0;exitPerimeter=0;entryX=0.5;entryY=0;entryDx=0;entryDy=0;entryPerimeter=0;" parent="AwKzLyUp2XAvsV8vCrsQ-6" source="P-KZXeGg92Hp4Yk-E8ys-29" target="P-KZXeGg92Hp4Yk-E8ys-12" edge="1">
          <mxGeometry relative="1" as="geometry" />
        </mxCell>
        <mxCell id="P-KZXeGg92Hp4Yk-E8ys-49" value="ELB" style="sketch=0;points=[[0,0,0],[0.25,0,0],[0.5,0,0],[0.75,0,0],[1,0,0],[0,1,0],[0.25,1,0],[0.5,1,0],[0.75,1,0],[1,1,0],[0,0.25,0],[0,0.5,0],[0,0.75,0],[1,0.25,0],[1,0.5,0],[1,0.75,0]];outlineConnect=0;fontColor=#232F3E;fillColor=#8C4FFF;strokeColor=#ffffff;dashed=0;verticalLabelPosition=bottom;verticalAlign=top;align=center;html=1;fontSize=12;fontStyle=0;aspect=fixed;shape=mxgraph.aws4.resourceIcon;resIcon=mxgraph.aws4.elastic_load_balancing;" parent="AwKzLyUp2XAvsV8vCrsQ-6" vertex="1">
          <mxGeometry x="740" y="20" width="60" height="60" as="geometry" />
        </mxCell>
        <mxCell id="P-KZXeGg92Hp4Yk-E8ys-50" style="edgeStyle=orthogonalEdgeStyle;rounded=0;orthogonalLoop=1;jettySize=auto;html=1;exitX=0.5;exitY=1;exitDx=0;exitDy=0;exitPerimeter=0;entryX=0.5;entryY=0;entryDx=0;entryDy=0;entryPerimeter=0;" parent="AwKzLyUp2XAvsV8vCrsQ-6" source="P-KZXeGg92Hp4Yk-E8ys-49" target="P-KZXeGg92Hp4Yk-E8ys-20" edge="1">
          <mxGeometry relative="1" as="geometry" />
        </mxCell>
        <mxCell id="P-KZXeGg92Hp4Yk-E8ys-4" value="Region" style="points=[[0,0],[0.25,0],[0.5,0],[0.75,0],[1,0],[1,0.25],[1,0.5],[1,0.75],[1,1],[0.75,1],[0.5,1],[0.25,1],[0,1],[0,0.75],[0,0.5],[0,0.25]];outlineConnect=0;gradientColor=none;html=1;whiteSpace=wrap;fontSize=12;fontStyle=0;container=1;pointerEvents=0;collapsible=0;recursiveResize=0;shape=mxgraph.aws4.group;grIcon=mxgraph.aws4.group_region;strokeColor=#00A4A6;fillColor=none;verticalAlign=top;align=left;spacingLeft=30;fontColor=#147EBA;dashed=1;" parent="1" vertex="1">
          <mxGeometry x="-620" y="200" width="820" height="660" as="geometry" />
        </mxCell>
        <mxCell id="P-KZXeGg92Hp4Yk-E8ys-8" value="VPC" style="points=[[0,0],[0.25,0],[0.5,0],[0.75,0],[1,0],[1,0.25],[1,0.5],[1,0.75],[1,1],[0.75,1],[0.5,1],[0.25,1],[0,1],[0,0.75],[0,0.5],[0,0.25]];outlineConnect=0;gradientColor=none;html=1;whiteSpace=wrap;fontSize=12;fontStyle=0;container=1;pointerEvents=0;collapsible=0;recursiveResize=0;shape=mxgraph.aws4.group;grIcon=mxgraph.aws4.group_vpc2;strokeColor=#8C4FFF;fillColor=none;verticalAlign=top;align=left;spacingLeft=30;fontColor=#AAB7B8;dashed=0;" parent="P-KZXeGg92Hp4Yk-E8ys-4" vertex="1">
          <mxGeometry x="30" y="40" width="720" height="350" as="geometry" />
        </mxCell>
        <mxCell id="P-KZXeGg92Hp4Yk-E8ys-7" value="" style="sketch=0;points=[[0,0,0],[0.25,0,0],[0.5,0,0],[0.75,0,0],[1,0,0],[0,1,0],[0.25,1,0],[0.5,1,0],[0.75,1,0],[1,1,0],[0,0.25,0],[0,0.5,0],[0,0.75,0],[1,0.25,0],[1,0.5,0],[1,0.75,0]];outlineConnect=0;fontColor=#232F3E;fillColor=#ED7100;strokeColor=#ffffff;dashed=0;verticalLabelPosition=bottom;verticalAlign=top;align=center;html=1;fontSize=12;fontStyle=0;aspect=fixed;shape=mxgraph.aws4.resourceIcon;resIcon=mxgraph.aws4.eks;" parent="P-KZXeGg92Hp4Yk-E8ys-8" vertex="1">
          <mxGeometry x="70" y="60" width="50" height="50" as="geometry" />
        </mxCell>
        <mxCell id="P-KZXeGg92Hp4Yk-E8ys-5" value="" style="sketch=0;outlineConnect=0;fontColor=#232F3E;gradientColor=none;fillColor=#8C4FFF;strokeColor=none;dashed=0;verticalLabelPosition=bottom;verticalAlign=top;align=center;html=1;fontSize=12;fontStyle=0;aspect=fixed;pointerEvents=1;shape=mxgraph.aws4.peering;" parent="1" vertex="1">
          <mxGeometry x="270" y="490" width="60" height="60" as="geometry" />
        </mxCell>
        <mxCell id="P-KZXeGg92Hp4Yk-E8ys-21" value="GA" style="sketch=0;points=[[0,0,0],[0.25,0,0],[0.5,0,0],[0.75,0,0],[1,0,0],[0,1,0],[0.25,1,0],[0.5,1,0],[0.75,1,0],[1,1,0],[0,0.25,0],[0,0.5,0],[0,0.75,0],[1,0.25,0],[1,0.5,0],[1,0.75,0]];outlineConnect=0;fontColor=#232F3E;fillColor=#8C4FFF;strokeColor=#ffffff;dashed=0;verticalLabelPosition=bottom;verticalAlign=top;align=center;html=1;fontSize=12;fontStyle=0;aspect=fixed;shape=mxgraph.aws4.resourceIcon;resIcon=mxgraph.aws4.global_accelerator;" parent="1" vertex="1">
          <mxGeometry x="490" y="70" width="60" height="60" as="geometry" />
        </mxCell>
        <mxCell id="P-KZXeGg92Hp4Yk-E8ys-48" style="edgeStyle=orthogonalEdgeStyle;rounded=0;orthogonalLoop=1;jettySize=auto;html=1;exitX=0.5;exitY=1;exitDx=0;exitDy=0;exitPerimeter=0;entryX=0.5;entryY=0;entryDx=0;entryDy=0;entryPerimeter=0;" parent="1" source="P-KZXeGg92Hp4Yk-E8ys-21" target="P-KZXeGg92Hp4Yk-E8ys-29" edge="1">
          <mxGeometry relative="1" as="geometry">
            <Array as="points">
              <mxPoint x="520" y="180" />
              <mxPoint x="741" y="180" />
            </Array>
          </mxGeometry>
        </mxCell>
        <mxCell id="P-KZXeGg92Hp4Yk-E8ys-53" style="edgeStyle=orthogonalEdgeStyle;rounded=0;orthogonalLoop=1;jettySize=auto;html=1;" parent="1" source="P-KZXeGg92Hp4Yk-E8ys-52" target="P-KZXeGg92Hp4Yk-E8ys-49" edge="1">
          <mxGeometry relative="1" as="geometry" />
        </mxCell>
        <mxCell id="P-KZXeGg92Hp4Yk-E8ys-54" style="edgeStyle=orthogonalEdgeStyle;rounded=0;orthogonalLoop=1;jettySize=auto;html=1;" parent="1" source="P-KZXeGg92Hp4Yk-E8ys-52" target="P-KZXeGg92Hp4Yk-E8ys-21" edge="1">
          <mxGeometry relative="1" as="geometry" />
        </mxCell>
        <mxCell id="P-KZXeGg92Hp4Yk-E8ys-52" value="Client" style="sketch=0;outlineConnect=0;fontColor=#232F3E;gradientColor=none;strokeColor=#232F3E;fillColor=#ffffff;dashed=0;verticalLabelPosition=bottom;verticalAlign=top;align=center;html=1;fontSize=12;fontStyle=0;aspect=fixed;shape=mxgraph.aws4.resourceIcon;resIcon=mxgraph.aws4.client;" parent="1" vertex="1">
          <mxGeometry x="490" y="-100" width="60" height="60" as="geometry" />
        </mxCell>
      </root>
    </mxGraphModel>
  </diagram>
</mxfile>
